<svg width="381" height="423" viewBox="0 0 381 423" fill="none" xmlns="http://www.w3.org/2000/svg">
<path d="M64.7106 207.937L98.1475 83.1485L222.936 49.7115L314.288 141.063L280.851 265.852L156.062 299.289L64.7106 207.937Z" stroke="black" stroke-width="4"/>
<path d="M328.758 155.533L295.321 280.322L170.532 313.759L79.1805 222.407L112.618 97.6185L237.406 64.1815L328.758 155.533Z" stroke="black" stroke-width="4"/>
<path d="M140.729 219H137.729V222H140.729V219ZM140.729 207.037L140.162 204.091L137.729 204.559V207.037H140.729ZM151.393 204.986L151.959 207.932L154.393 207.464V204.986H151.393ZM151.393 134.85H154.393V131.85H151.393V134.85ZM133.277 134.85V131.85H130.541L130.29 134.575L133.277 134.85ZM132.184 146.744V149.744H134.92L135.171 147.019L132.184 146.744ZM117.076 146.744H114.076V149.744H117.076V146.744ZM117.076 119.469V116.469H114.076V119.469H117.076ZM205.875 119.469H208.875V116.469H205.875V119.469ZM205.875 146.744V149.744H208.875V146.744H205.875ZM190.699 146.744L187.712 147.019L187.962 149.744H190.699V146.744ZM189.605 134.85L192.593 134.575L192.342 131.85H189.605V134.85ZM171.354 134.85V131.85H168.354V134.85H171.354ZM171.354 204.986H168.354V207.467L170.79 207.933L171.354 204.986ZM182.086 207.037H185.086V204.556L182.649 204.09L182.086 207.037ZM182.086 219V222H185.086V219H182.086ZM143.729 219V207.037H137.729V219H143.729ZM141.295 209.983L151.959 207.932L150.826 202.04L140.162 204.091L141.295 209.983ZM154.393 204.986V134.85H148.393V204.986H154.393ZM151.393 131.85H133.277V137.85H151.393V131.85ZM130.29 134.575L129.196 146.469L135.171 147.019L136.265 135.124L130.29 134.575ZM132.184 143.744H117.076V149.744H132.184V143.744ZM120.076 146.744V119.469H114.076V146.744H120.076ZM117.076 122.469H205.875V116.469H117.076V122.469ZM202.875 119.469V146.744H208.875V119.469H202.875ZM205.875 143.744H190.699V149.744H205.875V143.744ZM193.687 146.469L192.593 134.575L186.618 135.124L187.712 147.019L193.687 146.469ZM189.605 131.85H171.354V137.85H189.605V131.85ZM168.354 134.85V204.986H174.354V134.85H168.354ZM170.79 207.933L181.523 209.984L182.649 204.09L171.917 202.04L170.79 207.933ZM179.086 207.037V219H185.086V207.037H179.086ZM182.086 216H140.729V222H182.086V216Z" fill="black"/>
<path d="M214.908 256.42L213.422 259.026L213.431 259.031L213.441 259.037L214.908 256.42ZM198.365 239.262L195.705 240.649L195.71 240.659L195.715 240.668L198.365 239.262ZM198.16 183.959L195.483 182.604L195.48 182.611L198.16 183.959ZM214.225 166.391L212.666 163.827L212.659 163.832L214.225 166.391ZM258.111 162.904L257.189 165.759L258.111 162.904ZM273.971 171.654H276.971V170.26L275.904 169.361L273.971 171.654ZM273.971 195.717V198.717H276.971V195.717H273.971ZM259.137 195.717L256.164 196.12L256.516 198.717H259.137V195.717ZM257.086 180.609L260.059 180.206L259.882 178.905L258.806 178.152L257.086 180.609ZM249.361 176.85L248.413 179.696L248.433 179.702L248.454 179.709L249.361 176.85ZM219.762 184.643L222.115 186.504L222.121 186.495L219.762 184.643ZM220.035 237.895L217.709 239.79L220.035 237.895ZM249.156 246.166L249.807 249.095L249.824 249.091L249.841 249.087L249.156 246.166ZM257.086 243.568L258.299 246.312L259.814 245.642L260.054 244.003L257.086 243.568ZM259.137 229.555V226.555H256.544L256.168 229.12L259.137 229.555ZM273.971 229.555H276.971V226.555H273.971V229.555ZM273.971 253.344L275.621 255.849L276.971 254.96V253.344H273.971ZM259.479 259.838L260.338 262.712L260.349 262.709L260.359 262.706L259.479 259.838ZM240.201 259.436C230.913 259.436 223.006 257.52 216.375 253.803L213.441 259.037C221.12 263.341 230.075 265.436 240.201 265.436V259.436ZM216.395 253.814C209.79 250.046 204.674 244.747 201.015 237.855L195.715 240.668C199.895 248.542 205.808 254.682 213.422 259.026L216.395 253.814ZM201.025 237.875C197.417 230.955 195.555 222.677 195.555 212.943H189.555C189.555 223.444 191.566 232.712 195.705 240.649L201.025 237.875ZM195.555 212.943V209.594H189.555V212.943H195.555ZM195.555 209.594C195.555 200.325 197.345 192.254 200.84 185.307L195.48 182.611C191.501 190.52 189.555 199.54 189.555 209.594H195.555ZM200.837 185.314C204.376 178.32 209.354 172.888 215.79 168.95L212.659 163.832C205.241 168.37 199.509 174.65 195.483 182.604L200.837 185.314ZM215.783 168.954C222.206 165.05 229.962 163.033 239.176 163.033V157.033C229.067 157.033 220.189 159.255 212.666 163.827L215.783 168.954ZM239.176 163.033C245.586 163.033 251.584 163.948 257.189 165.759L259.034 160.05C252.789 158.032 246.164 157.033 239.176 157.033V163.033ZM257.189 165.759C262.752 167.556 267.693 170.286 272.037 173.948L275.904 169.361C270.951 165.184 265.319 162.08 259.034 160.05L257.189 165.759ZM270.971 171.654V195.717H276.971V171.654H270.971ZM273.971 192.717H259.137V198.717H273.971V192.717ZM262.109 195.313L260.059 180.206L254.113 181.013L256.164 196.12L262.109 195.313ZM258.806 178.152C256.259 176.368 253.406 174.986 250.269 173.99L248.454 179.709C251.059 180.536 253.356 181.66 255.366 183.067L258.806 178.152ZM250.31 174.004C247.081 172.927 243.518 172.414 239.654 172.414V178.414C242.992 178.414 245.899 178.858 248.413 179.696L250.31 174.004ZM239.654 172.414C230.385 172.414 222.851 175.851 217.402 182.79L222.121 186.495C226.334 181.13 232.062 178.414 239.654 178.414V172.414ZM217.409 182.781C212.036 189.574 209.516 198.575 209.516 209.457H215.516C215.516 199.467 217.826 191.925 222.115 186.504L217.409 182.781ZM209.516 209.457V212.943H215.516V209.457H209.516ZM209.516 212.943C209.516 223.893 212.138 232.951 217.709 239.79L222.361 236C217.907 230.533 215.516 222.958 215.516 212.943H209.516ZM217.709 239.79C223.349 246.711 231.076 250.123 240.543 250.123V244.123C232.692 244.123 226.748 241.383 222.361 236L217.709 239.79ZM240.543 250.123C243.638 250.123 246.728 249.779 249.807 249.095L248.505 243.237C245.843 243.829 243.19 244.123 240.543 244.123V250.123ZM249.841 249.087C252.912 248.367 255.735 247.446 258.299 246.312L255.872 240.825C253.697 241.787 251.234 242.598 248.472 243.245L249.841 249.087ZM260.054 244.003L262.105 229.989L256.168 229.12L254.118 243.134L260.054 244.003ZM259.137 232.555H273.971V226.555H259.137V232.555ZM270.971 229.555V253.344H276.971V229.555H270.971ZM272.32 250.839C268.744 253.194 264.191 255.252 258.598 256.97L260.359 262.706C266.341 260.869 271.45 258.597 275.621 255.849L272.32 250.839ZM258.619 256.964C253.152 258.599 247.022 259.436 240.201 259.436V265.436C247.508 265.436 254.229 264.54 260.338 262.712L258.619 256.964Z" fill="black"/>
<path d="M113.762 335.215C132.277 327.012 95.2461 329.355 58.7422 333.047L59.8555 329.824C60.0312 329.238 59.7383 328.535 59.0938 328.301C58.6836 328.184 58.2148 328.301 57.8633 328.594C57.5117 328.887 54.582 331.406 53.1758 333.633C43.625 334.629 34.3086 335.684 26.2227 336.621C18.8984 335.918 10.2266 336.973 0.910156 339.785C0.324219 339.961 -0.0273438 340.488 0.03125 341.133C0.148438 341.777 0.734375 342.246 1.37891 342.129C1.49609 342.129 11.6914 340.781 25.9883 339.023C27.1602 339.141 28.2734 339.316 29.3867 339.492C34.7773 340.547 39.1719 342.773 42.1602 346.23C45.1484 349.629 46.7305 354.316 46.6133 360.293C46.5547 360.586 46.5547 360.82 46.5547 361.113L37.1211 388.711C36.8867 389.238 37.1211 389.824 37.6484 390.117C38.2344 390.469 38.9375 390.234 39.2891 389.648C45.4414 378.516 48.4297 369.199 48.957 361.582L57.9805 335.273C90.9688 331.23 114.523 333.164 112.824 333.047C112.121 332.988 111.945 333.984 112.18 334.629C112.473 335.215 113.176 335.508 113.762 335.215ZM55.3438 335.566L55.2266 335.859C55.2266 335.742 55.2266 335.684 55.168 335.566H55.3438ZM52.4727 335.859C52.5898 336.387 52.8828 336.797 53.6445 337.031C54.1133 337.207 54.6406 337.09 54.9336 336.738L48.6641 355.02C47.9609 350.859 46.3789 347.402 43.9766 344.648C41.3398 341.602 37.8242 339.434 33.5469 338.086C39.5234 337.383 45.9688 336.621 52.4727 335.859ZM55.9883 333.34L56.1641 333.223L56.1055 333.34H55.9883ZM66.5938 362.812C66.0078 362.637 65.3047 362.695 64.6016 362.871C63.3125 363.164 61.7891 363.984 60.5 365.039C59.1523 366.094 58.0391 367.441 57.6289 368.789C57.4531 369.492 57.3945 370.137 57.5703 370.781C58.3906 374.531 64.6602 369.785 67.8242 367.031C68.1758 369.375 69.2305 372.363 72.6289 371.777C75.5586 371.25 78.7227 368.203 80.9492 366.094C81.8281 365.156 82.4727 364.512 82.5312 364.453C81.7695 366.387 79.9531 372.773 79.9531 372.773C79.7773 373.418 80.1875 374.062 80.832 374.238C81.3594 374.355 81.8867 374.121 82.1211 373.711C82.9414 372.656 91.3789 361.934 91.4375 363.457C91.6133 368.613 92.375 371.484 94.7773 372.539C97.1211 373.535 100.52 372.363 105.91 368.789C106.496 368.438 106.613 367.734 106.262 367.148C105.91 366.621 105.148 366.445 104.621 366.797C99.9922 369.902 97.2383 371.016 95.7734 370.371C94.4258 369.727 93.8984 367.266 93.7812 363.105C93.6055 357.246 87.4531 363.398 83.5273 368.086C84.5234 365.098 86.2227 361.23 84.875 360.41C83.8203 360.117 80.5391 363.105 79.25 364.336C77.2578 366.27 74.4453 369.023 72.2188 369.434C69.7578 369.844 70.1094 364.512 70.1094 364.512C70.168 364.219 70.0508 363.867 69.8164 363.633C69.3477 363.164 68.5859 363.105 68.1172 363.574C68.1172 363.574 67.8242 363.809 67.4727 364.219C67.5312 363.633 67.1797 362.988 66.5938 362.812ZM66.3594 365.156C64.0156 367.324 60.0312 370.898 59.9141 370.195C59.8555 370.02 59.8555 369.785 59.9141 369.492C60.207 368.613 61.0273 367.676 61.9648 366.855C63.0195 366.035 64.1914 365.391 65.1289 365.156C65.4805 365.098 65.7734 365.098 65.8906 365.156C66.0664 365.156 66.2422 365.215 66.3594 365.156ZM107.082 363.164C107.023 363.164 101.164 371.953 101.047 374.648C100.871 377.988 106.672 374.062 110.891 370.781C110.305 372.715 110.246 374.59 111.828 375.41C112.824 375.879 114.23 375.234 115.754 373.828C117.043 372.598 118.625 370.723 120.266 368.555C120.676 368.027 120.559 367.266 120.031 366.914C119.504 366.504 118.742 366.621 118.332 367.148C113.293 374.883 110.422 375.293 115.344 367.09C115.637 366.68 115.637 366.035 115.285 365.625C114.816 365.156 114.055 365.098 113.586 365.508C108.371 370.605 103.918 372.773 103.918 372.773C104.445 370.781 109.016 364.512 109.074 364.512C109.426 363.926 109.309 363.223 108.723 362.812C108.195 362.461 107.434 362.637 107.082 363.164ZM123.781 350.156C124.25 350.156 124.719 350.449 124.895 350.918C125.129 351.504 124.895 352.207 124.25 352.5C122.082 353.438 123.02 356.25 123.02 356.25C123.195 356.895 122.844 357.598 122.199 357.773C121.555 357.949 120.91 357.598 120.734 356.953C120.734 356.953 119.152 352.09 123.312 350.273C123.488 350.215 123.664 350.156 123.781 350.156ZM120.266 363.633C120.969 363.691 121.438 364.277 121.32 365.039C121.203 365.566 120.207 369.258 118.449 374.531C122.961 372.422 127.355 369.961 131.398 367.031C132.043 366.504 132.922 366.621 133.273 367.207C133.684 367.734 133.449 368.613 132.746 369.082C127.941 372.598 122.668 375.469 117.336 377.871C114.758 385.254 111.008 394.688 106.438 402.832C102.863 409.219 98.7617 414.902 94.1914 418.418C89.3867 422.109 84.1719 423.398 78.7227 420.703C75.9688 419.414 73.2148 417.012 70.4023 413.438C70.4023 413.438 70.4023 413.379 70.3438 413.379C63.4297 403.301 65.3047 397.207 72.1602 392.461C77.1992 389.004 84.9922 386.484 93.8984 383.672C100.637 381.504 108.02 379.102 115.227 375.996C117.277 369.902 118.449 365.508 118.566 364.98C118.742 364.219 119.504 363.633 120.266 363.633ZM114.055 379.277C107.375 382.031 100.578 384.258 94.3086 386.25C85.6367 389.004 78.0781 391.406 73.4492 394.629C68.2344 398.203 66.9453 403.125 72.7461 411.562C75.3242 414.902 77.8438 417.012 80.3047 418.242C84.6992 420.41 88.918 419.355 92.7852 416.367C96.8867 413.203 100.695 407.93 104.094 401.895C108.195 394.512 111.594 386.191 114.055 379.277ZM223.566 322.324C227.141 322.266 230.305 322.852 232.824 324.199C236.223 326.016 238.332 329.414 238.508 334.043C238.566 336.035 237.98 338.438 237.16 341.191C236.281 343.887 235.109 346.875 233.996 349.688C231.711 355.254 229.367 359.941 229.367 359.941C229.133 360.41 228.605 360.762 228.137 360.762C227.375 360.762 226.73 360.117 226.73 359.355C226.73 359.18 226.789 358.945 226.906 358.77C226.906 358.77 229.191 354.082 231.477 348.633C232.59 345.879 233.703 342.949 234.523 340.371C235.344 337.734 235.812 335.391 235.754 334.16C235.637 330.234 234.172 328.008 231.535 326.602C228.898 325.195 224.973 324.727 220.109 325.254C210.383 326.25 197.199 330.996 184.133 337.383C171.066 343.77 158.117 351.797 148.508 359.355C143.703 363.105 139.777 366.738 137.141 369.961C134.504 373.125 133.332 375.879 133.449 377.52C133.566 379.336 134.797 380.801 137.375 382.031C139.953 383.32 143.82 384.258 148.449 384.785C157.707 385.898 170.188 385.605 182.902 384.609C208.332 382.617 234.816 377.988 238.918 377.051C238.977 377.051 239.152 377.051 239.211 377.051C239.973 377.051 240.559 377.637 240.559 378.398C240.559 379.043 240.09 379.629 239.504 379.746C234.934 380.742 208.684 385.371 183.137 387.305C170.305 388.301 157.707 388.652 148.098 387.539C143.293 386.953 139.25 386.016 136.203 384.492C133.098 382.969 130.988 380.742 130.695 377.754C130.461 374.766 132.219 371.66 135.031 368.203C137.902 364.746 141.945 361.055 146.809 357.188C156.594 349.512 169.719 341.367 182.961 334.922C196.145 328.477 209.445 323.613 219.816 322.559C221.105 322.383 222.336 322.324 223.566 322.324ZM270.852 366.621C270.852 366.621 257.434 369.844 252.277 372.48C252.805 370.781 253.273 368.438 252.219 365.918C250.344 361.289 244.133 368.203 239.738 373.945C240.324 372.07 240.969 370.254 241.555 368.438C253.801 358.594 261.008 341.484 263.117 331.348C263.879 327.305 263.879 324.199 263.059 322.852C261.828 320.859 259.719 321.328 256.906 325.488C252.57 331.816 245.305 348.164 235.051 380.684C234.875 381.152 235.109 381.738 235.52 382.031C236.105 382.383 236.867 382.207 237.219 381.68C237.219 381.621 248.762 363.809 250.051 366.855C250.988 369.082 250.168 371.484 249.641 372.832C249.289 373.828 249.055 374.531 249.465 375.176C250.051 376.113 250.988 376.055 252.805 374.941C256.848 372.48 271.379 368.965 271.438 368.965C272.082 368.789 272.492 368.145 272.316 367.5C272.141 366.855 271.496 366.445 270.852 366.621ZM258.898 326.836C260.305 324.785 260.949 323.965 261.066 324.141C261.535 324.961 261.418 327.422 260.715 330.879C258.898 339.785 253.039 354.258 243.078 363.867C250.285 343.066 255.5 331.758 258.898 326.836ZM279.934 366.445C277.824 363.516 274.719 364.102 272.141 365.918C270.91 366.797 269.855 367.969 269.094 369.082C268.273 370.312 267.805 371.66 267.922 372.715C268.039 374.238 269.094 375.176 271.32 374.941C275.305 374.531 278.82 371.777 281.105 369.434C280.812 373.184 281.223 374.766 282.98 375C284.27 375.234 285.969 374.238 288.605 372.715C290.422 371.66 292.707 370.312 295.578 368.906C296.164 368.613 296.457 367.91 296.164 367.324C295.871 366.738 295.109 366.445 294.523 366.738C291.594 368.203 289.191 369.551 287.375 370.605C285.207 371.895 283.801 372.715 283.332 372.656C283.039 372.598 283.273 370.723 283.918 365.801C283.977 365.332 283.801 364.863 283.391 364.629C282.863 364.277 282.102 364.395 281.75 364.922C281.75 364.922 281.164 365.801 280.109 366.914C280.109 366.738 280.051 366.562 279.934 366.445ZM278.82 368.32C276.887 370.254 274.133 372.246 271.086 372.539C270.559 372.598 270.324 372.539 270.324 372.48C270.266 371.953 270.559 371.25 271.086 370.43C271.73 369.492 272.609 368.555 273.547 367.91C275.07 366.797 276.887 366.328 278 367.852C278.176 368.145 278.469 368.32 278.82 368.32ZM295.695 363.516C295.695 363.516 290.129 375 294.699 374.648C296.223 374.531 298.566 372.539 300.5 370.605C300.031 373.125 300.09 375.586 302.375 374.766C302.668 374.648 303.078 374.355 303.605 373.887C305.949 371.66 312.512 364.277 318.957 356.426C314.973 365.977 311.633 375.41 311.457 378.223C311.398 380.039 311.984 380.801 313.039 380.859C314.445 380.918 316.262 378.457 318.195 375.879C319.484 374.121 320.832 372.305 321.711 371.543C322.941 375.469 324.582 376.582 326.984 375.645C328.859 374.883 331.086 372.305 334.016 368.555C334.426 368.027 334.309 367.266 333.781 366.914C333.254 366.504 332.551 366.562 332.141 367.09C329.445 370.547 327.453 372.832 326.047 373.418C325.227 373.77 324.582 372.832 323.82 370.254C323.41 368.906 322.648 368.555 321.535 368.848C320.129 369.258 318.137 371.895 316.262 374.473C315.383 375.586 314.562 376.699 313.977 377.461C314.797 373.008 319.777 360 324.641 349.277C330.617 341.543 335.188 334.57 334.484 332.578C334.367 332.344 334.25 332.168 334.133 331.992C333.898 331.758 333.664 331.582 333.371 331.523C333.312 331.523 333.254 331.523 333.195 331.523C332.082 331.289 330.793 332.52 329.387 334.629C328.215 336.445 326.809 339.082 325.344 342.188C324.406 344.004 323.469 345.996 322.531 348.047C321.594 349.277 320.598 350.508 319.602 351.738C314.445 358.242 309.172 364.395 302.551 371.367C302.141 371.543 303.488 367.793 304.016 366.621C304.367 366.094 304.25 365.449 303.781 365.039C303.254 364.629 302.492 364.688 302.082 365.215C302.082 365.215 297.277 371.367 295.285 371.484C294.875 371.543 297.863 364.57 297.863 364.512C298.156 363.926 297.863 363.223 297.277 362.93C296.691 362.637 295.988 362.871 295.695 363.516ZM313.215 378.457C313.156 378.457 313.156 378.457 313.156 378.457C312.98 378.457 313.039 378.457 313.215 378.457ZM340.344 362.812C339.758 362.637 339.055 362.695 338.352 362.871C337.062 363.164 335.539 363.984 334.25 365.039C332.902 366.094 331.789 367.441 331.379 368.789C331.203 369.492 331.145 370.137 331.32 370.781C332.141 374.531 338.41 369.785 341.574 367.031C341.926 369.375 342.98 372.363 346.379 371.777C349.309 371.25 352.473 368.203 354.699 366.094C355.578 365.156 356.223 364.512 356.281 364.453C355.52 366.387 353.703 372.773 353.703 372.773C353.527 373.418 353.938 374.062 354.582 374.238C355.109 374.355 355.637 374.121 355.871 373.711C356.691 372.656 365.129 361.934 365.188 363.457C365.363 368.613 366.125 371.484 368.527 372.539C370.871 373.535 374.27 372.363 379.66 368.789C380.246 368.438 380.363 367.734 380.012 367.148C379.66 366.621 378.898 366.445 378.371 366.797C373.742 369.902 370.988 371.016 369.523 370.371C368.176 369.727 367.648 367.266 367.531 363.105C367.355 357.246 361.203 363.398 357.277 368.086C358.273 365.098 359.973 361.23 358.625 360.41C357.57 360.117 354.289 363.105 353 364.336C351.008 366.27 348.195 369.023 345.969 369.434C343.508 369.844 343.859 364.512 343.859 364.512C343.918 364.219 343.801 363.867 343.566 363.633C343.098 363.164 342.336 363.105 341.867 363.574C341.867 363.574 341.574 363.809 341.223 364.219C341.281 363.633 340.93 362.988 340.344 362.812ZM340.109 365.156C337.766 367.324 333.781 370.898 333.664 370.195C333.605 370.02 333.605 369.785 333.664 369.492C333.957 368.613 334.777 367.676 335.715 366.855C336.77 366.035 337.941 365.391 338.879 365.156C339.23 365.098 339.523 365.098 339.641 365.156C339.816 365.156 339.992 365.215 340.109 365.156Z" fill="black"/>
</svg>
